<svg width="0" height="0" class="hidden">
  <symbol viewBox="0 0 64 64" xmlns="http://www.w3.org/2000/svg" id="destination-map-1">
    <title>Destination Map</title>
    <desc>A line styled icon from Orion Icon Library.</desc>
    <path d="M43.1 17l9.9 9.9M43 27l9.9-9.9m-19.5 7.6a10 10 0 0 1 6.8-2.7M29.7 35.2a10 10 0 0 0 .5-2.9V32a10 10 0 0 1 .9-4.3M21.2 42a10 10 0 0 0 6.6-3.5M9.8 42h7.6M2 42h4"
    stroke-miterlimit="10" stroke="#101010" fill="none" data-name="layer2"
    stroke-linejoin="round" stroke-linecap="round" style="stroke:var(--layer1, #101010)"></path>
    <path d="M62 10v50l-22-6-16 6-22-6V4l22 6 16-6 22 6z" 
    stroke-miterlimit="10" stroke="#101010" fill="none" data-name="layer1"
    stroke-linejoin="round" stroke-linecap="round" style="stroke:var(--layer1, #101010)"></path>
  </symbol>
  <symbol xmlns="http://www.w3.org/2000/svg" viewBox="0 0 64 64" id="pay-by-card-1">
    <title>Pay by Card</title>
    <desc>A line styled icon from Orion Icon Library.</desc>
    <path data-name="layer1"
    d="M40 20l8.8 8.7C51.2 31.1 52 34.2 52 40c0 8.6-.1 22-.1 22M22 44a20 20 0 0 0 3.3 11.5C28.1 60 28 61.3 28 62"
    fill="none" stroke="#101010" stroke-miterlimit="10" stroke-linejoin="round"
    stroke-linecap="round" style="stroke:var(--layer2, #101010)"></path>
    <path data-name="layer2" d="M29.8 44H14a2 2 0 0 1-2-2V4a2 2 0 0 1 2-2h24a2 2 0 0 1 2 2v31M30 2v23"
    fill="none" stroke="#101010" stroke-miterlimit="10" stroke-linejoin="round"
    stroke-linecap="round" style="stroke:var(--layer2, #101010)"></path>
    <path data-name="layer1" d="M44.1 39.1L28.4 23.5a5 5 0 0 0-7 0 5 5 0 0 0 0 7l8.6 8.6s-2.6 8 6 14.9"
    fill="none" stroke="#101010" stroke-miterlimit="10" stroke-linejoin="round"
    stroke-linecap="round" style="stroke:var(--layer2, #101010)"></path>
  </symbol>
  <symbol xmlns="http://www.w3.org/2000/svg" viewBox="0 0 64 64" id="heart-1">
    <title>Heart</title>
    <desc>A line styled icon from Orion Icon Library.</desc>
    <path data-name="layer1"
    d="M47 5c-6.5 0-12.9 4.2-15 10-2.1-5.8-8.5-10-15-10A15 15 0 0 0 2 20c0 13 11 26 30 39 19-13 30-26 30-39A15 15 0 0 0 47 5z"
    fill="none" stroke="#101010" stroke-miterlimit="10" stroke-linejoin="round"
    stroke-linecap="round" style="stroke:var(--layer1, #101010)"></path>
  </symbol>
  <symbol xmlns="http://www.w3.org/2000/svg" viewBox="0 0 64 64" id="mail-1">
    <title>Mail</title>
    <desc>A line styled icon from Orion Icon Library.</desc>
    <path data-name="layer2"
    fill="none" stroke="#101010" stroke-miterlimit="10" d="M2 12l30 29 30-29M42 31.6L62 52M2 52l20-20.4"
    stroke-linejoin="round" stroke-linecap="round" style="stroke:var(--layer1, #101010)"></path>
    <path data-name="layer1" fill="none" stroke="#101010" stroke-miterlimit="10"
    d="M2 12h60v40H2z" stroke-linejoin="round" stroke-linecap="round"
    style="stroke:var(--layer1, #101010)"></path>
  </symbol>
  <symbol xmlns="http://www.w3.org/2000/svg" viewBox="0 0 64 64" id="iphone-1">
    <title>Iphone</title>
    <desc>A line styled icon from Orion Icon Library.</desc>
    <path data-name="layer2"
    d="M14 59a3 3 0 0 0 3 3h30a3 3 0 0 0 3-3v-9H14zM50 5a3 3 0 0 0-3-3H17a3 3 0 0 0-3 3v5h36zm0 45V10m-36 0v40"
    fill="none" stroke="#101010" stroke-linecap="round" stroke-linejoin="round"
    style="stroke:var(--layer1, #101010)"></path>
    <circle data-name="layer1" cx="32" cy="56" r="2" fill="none" stroke="#101010"
    stroke-linecap="round" stroke-linejoin="round" style="stroke:var(--layer1, #101010)"></circle>
  </symbol>
</svg>